<svg xmlns="http://www.w3.org/2000/svg" viewBox="0 0 1000 460" width="1000" height="460" role="img" aria-labelledby="title desc" xmlns:c2pa="http://c2pa.org/manifest"><metadata><c2pa:manifest>AAAWgmp1bWIAAAAeanVtZGMycGEAEQAQgAAAqgA4m3EDYzJwYQAAABZcanVtYgAAAEdqdW1kYzJtYQARABCAAACqADibcQN1cm46YzJwYTplNzA3ZTEwMy1jOWZkLTQ1ODMtYTg5Yi1lMmNmMTkxMDliZTcAAAADl2p1bWIAAAApanVtZGMyYXMAEQAQgAAAqgA4m3EDYzJwYS5hc3NlcnRpb25zAAAAALxqdW1iAAAARGp1bWRjYm9yABEAEIAAAKoAOJtxE2MycGEuaW5ncmVkaWVudC52MwAAAAAYYzJzaOHuNti+Ff+jtytPlPQNYmYAAABwY2JvcqNpZGM6Zm9ybWF0bWltYWdlL3N2Zyt4bWxqaW5zdGFuY2VJRHgseG1wOmlpZDoyYmE2Y2JkZi0yYTM5LTQxYTUtYjg0My0wYTM3OGI4MGE3ZDJscmVsYXRpb25zaGlwaHBhcmVudE9mAAAB4mp1bWIAAABBanVtZGNib3IAEQAQgAAAqgA4m3ETYzJwYS5hY3Rpb25zLnYyAAAAABhjMnNop8Dm9UxOM8/amYUg964LPQAAAZljYm9yomdhY3Rpb25zgqJmYWN0aW9ua2MycGEub3BlbmVkanBhcmFtZXRlcnOha2luZ3JlZGllbnRzgaJjdXJseC1zZWxmI2p1bWJmPWMycGEuYXNzZXJ0aW9ucy9jMnBhLmluZ3JlZGllbnQudjNkaGFzaFggwJBYssjFwzBhMjjepEAvH5A1mjPBxIGt+fdXeojLcTakZmFjdGlvbngdY29tLmFudGhyb3BpYy5jbGF1ZGUucHJvdmlkZWRqcGFyYW1ldGVyc6F4H2NvbS5hbnRocm9waWMub3JpZ2luLWNvbmZpZGVuY2VndW5rbm93bmtkZXNjcmlwdGlvbnhmQ2xhdWRlIHByb3ZpZGVkIHRoaXMgZmlsZSBhdCB0aGUgcmVxdWVzdCBvZiBhIHVzZXIgYW5kIG1heSBoYXZlIGNyZWF0ZWQgb3IgbW9kaWZpZWQgdGhlIGZpbGUgY29udGVudHMubXNvZnR3YXJlQWdlbnShZG5hbWVmQ2xhdWRlcmFsbEFjdGlvbnNJbmNsdWRlZPUAAADIanVtYgAAAEBqdW1kY2JvcgARABCAAACqADibcRNjMnBhLmhhc2guZGF0YQAAAAAYYzJzaPrGGIEfNoXh+RB0cqf2G5sAAACAY2JvcqVjYWxnZnNoYTI1NmNwYWRNAAAAAAAAAAAAAAAAAGRoYXNoWCBkUyB0PglJFLpDbyIV0MIoILNYfZDI1ODiK4yZfGm0bGRuYW1lbmp1bWJmIG1hbmlmZXN0amV4Y2x1c2lvbnOBomVzdGFydBjAZmxlbmd0aBkeBAAAAj5qdW1iAAAAJ2p1bWRjMmNsABEAEIAAAKoAOJtxA2MycGEuY2xhaW0udjIAAAACD2Nib3KlY2FsZ2ZzaGEyNTZpc2lnbmF0dXJleE1zZWxmI2p1bWJmPS9jMnBhL3VybjpjMnBhOmU3MDdlMTAzLWM5ZmQtNDU4My1hODliLWUyY2YxOTEwOWJlNy9jMnBhLnNpZ25hdHVyZWppbnN0YW5jZUlEeCx4bXA6aWlkOmY2MWE3NjhlLWQ0NzctNGZhZC1hMTUzLWFlZGQ2ODM3MWQxOHJjcmVhdGVkX2Fzc2VydGlvbnODomN1cmx4LXNlbGYjanVtYmY9YzJwYS5hc3NlcnRpb25zL2MycGEuaW5ncmVkaWVudC52M2RoYXNoWCDAkFiyyMXDMGEyON6kQC8fkDWaM8HEga3591d6iMtxNqJjdXJseCpzZWxmI2p1bWJmPWMycGEuYXNzZXJ0aW9ucy9jMnBhLmFjdGlvbnMudjJkaGFzaFggXlyE/DKl7Cavzos8DeuWwbV7s4tyHUhxYbyncWSZwEKiY3VybHgpc2VsZiNqdW1iZj1jMnBhLmFzc2VydGlvbnMvYzJwYS5oYXNoLmRhdGFkaGFzaFggsKBP5iGGsQ8zsIOdszPX26bUeDsuGCW7yl+I6uzFrLx0Y2xhaW1fZ2VuZXJhdG9yX2luZm+jZG5hbWVvQW50aHJvcGljIEZpbGVzZ3ZlcnNpb25lMS4wLjBrc3BlY1ZlcnNpb25lMi40LjAAABA4anVtYgAAAChqdW1kYzJjcwARABCAAACqADibcQNjMnBhLnNpZ25hdHVyZQAAABAIY2JvctKEWQISogEmGCFZAgowggIGMIIBjaADAgECAhRA5aAK7sI50L64g/oGQgU9Z1UTADAKBggqhkjOPQQDAzBJMRcwFQYDVQQKEw5BbnRocm9waWMsIFBCQzEuMCwGA1UEAxMlQW50aHJvcGljIENvbnRlbnQgQ3JlZGVudGlhbHMgUm9vdCBDQTAeFw0yNjA4MDcxODQzNTZaFw0yODA4MDYxOTQzNTZaMEQxFzAVBgNVBAoTDkFudGhyb3BpYywgUEJDMSkwJwYDVQQDEyBBbnRocm9waWMgQ2xhdWRlIENvbnRlbnQgU2lnbmluZzBZMBMGByqGSM49AgEGCCqGSM49AwEHA0IABJh6CmvLUBgFFNU0vUKlOVtE6djd17L5SuwX0LemFisBM3dkd/3cyjxFA3Qo5S46fX0/ihY0VZ7mfb9KF703t5OjWDBWMA4GA1UdDwEB/wQEAwIHgDAVBgNVHSUEDjAMBgorBgEEAYPoXgIBMAwGA1UdEwEB/wQCMAAwHwYDVR0jBBgwFoAUzlHiBIFOZFsj+OPEz5o+nMHXXMIwCgYIKoZIzj0EAwMDZwAwZAIwMXMdFJ4BetLLVY7ORuE9noqbbAZOZn/aArXyTwFAZfKrPzxF2vPoJNf1+UCdg1XGAjBwX1zd9WGqYkqmL5SFqw1QySjr1zJfpJM9+1rdDwSPLMOPOjKuiXjoU/pUUeG9RwmhY3BhZFkNngAAAAAAAAAAAAAAAAAAAAAAAAAAAAAAAAAAAAAAAAAAAAAAAAAAAAAAAAAAAAAAAAAAAAAAAAAAAAAAAAAAAAAAAAAAAAAAAAAAAAAAAAAAAAAAAAAAAAAAAAAAAAAAAAAAAAAAAAAAAAAAAAAAAAAAAAAAAAAAAAAAAAAAAAAAAAAAAAAAAAAAAAAAAAAAAAAAAAAAAAAAAAAAAAAAAAAAAAAAAAAAAAAAAAAAAAAAAAAAAAAAAAAAAAAAAAAAAAAAAAAAAAAAAAAAAAAAAAAAAAAAAAAAAAAAAAAAAAAAAAAAAAAAAAAAAAAAAAAAAAAAAAAAAAAAAAAAAAAAAAAAAAAAAAAAAAAAAAAAAAAAAAAAAAAAAAAAAAAAAAAAAAAAAAAAAAAAAAAAAAAAAAAAAAAAAAAAAAAAAAAAAAAAAAAAAAAAAAAAAAAAAAAAAAAAAAAAAAAAAAAAAAAAAAAAAAAAAAAAAAAAAAAAAAAAAAAAAAAAAAAAAAAAAAAAAAAAAAAAAAAAAAAAAAAAAAAAAAAAAAAAAAAAAAAAAAAAAAAAAAAAAAAAAAAAAAAAAAAAAAAAAAAAAAAAAAAAAAAAAAAAAAAAAAAAAAAAAAAAAAAAAAAAAAAAAAAAAAAAAAAAAAAAAAAAAAAAAAAAAAAAAAAAAAAAAAAAAAAAAAAAAAAAAAAAAAAAAAAAAAAAAAAAAAAAAAAAAAAAAAAAAAAAAAAAAAAAAAAAAAAAAAAAAAAAAAAAAAAAAAAAAAAAAAAAAAAAAAAAAAAAAAAAAAAAAAAAAAAAAAAAAAAAAAAAAAAAAAAAAAAAAAAAAAAAAAAAAAAAAAAAAAAAAAAAAAAAAAAAAAAAAAAAAAAAAAAAAAAAAAAAAAAAAAAAAAAAAAAAAAAAAAAAAAAAAAAAAAAAAAAAAAAAAAAAAAAAAAAAAAAAAAAAAAAAAAAAAAAAAAAAAAAAAAAAAAAAAAAAAAAAAAAAAAAAAAAAAAAAAAAAAAAAAAAAAAAAAAAAAAAAAAAAAAAAAAAAAAAAAAAAAAAAAAAAAAAAAAAAAAAAAAAAAAAAAAAAAAAAAAAAAAAAAAAAAAAAAAAAAAAAAAAAAAAAAAAAAAAAAAAAAAAAAAAAAAAAAAAAAAAAAAAAAAAAAAAAAAAAAAAAAAAAAAAAAAAAAAAAAAAAAAAAAAAAAAAAAAAAAAAAAAAAAAAAAAAAAAAAAAAAAAAAAAAAAAAAAAAAAAAAAAAAAAAAAAAAAAAAAAAAAAAAAAAAAAAAAAAAAAAAAAAAAAAAAAAAAAAAAAAAAAAAAAAAAAAAAAAAAAAAAAAAAAAAAAAAAAAAAAAAAAAAAAAAAAAAAAAAAAAAAAAAAAAAAAAAAAAAAAAAAAAAAAAAAAAAAAAAAAAAAAAAAAAAAAAAAAAAAAAAAAAAAAAAAAAAAAAAAAAAAAAAAAAAAAAAAAAAAAAAAAAAAAAAAAAAAAAAAAAAAAAAAAAAAAAAAAAAAAAAAAAAAAAAAAAAAAAAAAAAAAAAAAAAAAAAAAAAAAAAAAAAAAAAAAAAAAAAAAAAAAAAAAAAAAAAAAAAAAAAAAAAAAAAAAAAAAAAAAAAAAAAAAAAAAAAAAAAAAAAAAAAAAAAAAAAAAAAAAAAAAAAAAAAAAAAAAAAAAAAAAAAAAAAAAAAAAAAAAAAAAAAAAAAAAAAAAAAAAAAAAAAAAAAAAAAAAAAAAAAAAAAAAAAAAAAAAAAAAAAAAAAAAAAAAAAAAAAAAAAAAAAAAAAAAAAAAAAAAAAAAAAAAAAAAAAAAAAAAAAAAAAAAAAAAAAAAAAAAAAAAAAAAAAAAAAAAAAAAAAAAAAAAAAAAAAAAAAAAAAAAAAAAAAAAAAAAAAAAAAAAAAAAAAAAAAAAAAAAAAAAAAAAAAAAAAAAAAAAAAAAAAAAAAAAAAAAAAAAAAAAAAAAAAAAAAAAAAAAAAAAAAAAAAAAAAAAAAAAAAAAAAAAAAAAAAAAAAAAAAAAAAAAAAAAAAAAAAAAAAAAAAAAAAAAAAAAAAAAAAAAAAAAAAAAAAAAAAAAAAAAAAAAAAAAAAAAAAAAAAAAAAAAAAAAAAAAAAAAAAAAAAAAAAAAAAAAAAAAAAAAAAAAAAAAAAAAAAAAAAAAAAAAAAAAAAAAAAAAAAAAAAAAAAAAAAAAAAAAAAAAAAAAAAAAAAAAAAAAAAAAAAAAAAAAAAAAAAAAAAAAAAAAAAAAAAAAAAAAAAAAAAAAAAAAAAAAAAAAAAAAAAAAAAAAAAAAAAAAAAAAAAAAAAAAAAAAAAAAAAAAAAAAAAAAAAAAAAAAAAAAAAAAAAAAAAAAAAAAAAAAAAAAAAAAAAAAAAAAAAAAAAAAAAAAAAAAAAAAAAAAAAAAAAAAAAAAAAAAAAAAAAAAAAAAAAAAAAAAAAAAAAAAAAAAAAAAAAAAAAAAAAAAAAAAAAAAAAAAAAAAAAAAAAAAAAAAAAAAAAAAAAAAAAAAAAAAAAAAAAAAAAAAAAAAAAAAAAAAAAAAAAAAAAAAAAAAAAAAAAAAAAAAAAAAAAAAAAAAAAAAAAAAAAAAAAAAAAAAAAAAAAAAAAAAAAAAAAAAAAAAAAAAAAAAAAAAAAAAAAAAAAAAAAAAAAAAAAAAAAAAAAAAAAAAAAAAAAAAAAAAAAAAAAAAAAAAAAAAAAAAAAAAAAAAAAAAAAAAAAAAAAAAAAAAAAAAAAAAAAAAAAAAAAAAAAAAAAAAAAAAAAAAAAAAAAAAAAAAAAAAAAAAAAAAAAAAAAAAAAAAAAAAAAAAAAAAAAAAAAAAAAAAAAAAAAAAAAAAAAAAAAAAAAAAAAAAAAAAAAAAAAAAAAAAAAAAAAAAAAAAAAAAAAAAAAAAAAAAAAAAAAAAAAAAAAAAAAAAAAAAAAAAAAAAAAAAAAAAAAAAAAAAAAAAAAAAAAAAAAAAAAAAAAAAAAAAAAAAAAAAAAAAAAAAAAAAAAAAAAAAAAAAAAAAAAAAAAAAAAAAAAAAAAAAAAAAAAAAAAAAAAAAAAAAAAAAAAAAAAAAAAAAAAAAAAAAAAAAAAAAAAAAAAAAAAAAAAAAAAAAAAAAAAAAAAAAAAAAAAAAAAAAAAAAAAAAAAAAAAAAAAAAAAAAAAAAAAAAAAAAAAAAAAAAAAAAAAAAAAAAAAAAAAAAAAAAAAAAAAAAAAAAAAAAAAAAAAAAAAAAAAAAAAAAAAAAAAAAAAAAAAAAAAAAAAAAAAAAAAAAAAAAAAAAAAAAAAAAAAAAAAAAAAAAAAAAAAAAAAAAAAAAAAAAAAAAAAAAAAAAAAAAAAAAAAAAAAAAAAAAAAAAAAAAAAAAAAAAAAAAAAAAAAAAAAAAAAAAAAAAAAAAAAAAAAAAAAAAAAAAAAAAAAAAAAAAAAAAAAAAAAAAAAAAAAAAAAAAAAAAAAAAAAAAAAAAAAAAAAAAAAAAAAAAAAAAAAAAAAAAAAAAAAAAAAAAAAAAAAAAAAAAAAAAAAAAAAAAAAAAAAAAAAAAAAAAAAAAAAAAAAAAAAAAAAAAAAAAAAAAAAAAAAAAAAAAAAAAAAAAAAAAAAAAAAAAAAAAAAAAAAAAAAAAAAAAAAAAAAAAAAAAAAAAAAAAAAAAAAAAAAAAAAAAAAAAAAAAAAAAAAAAAAAAAAAAAAAAAAAAAAAAAAAAAAAAAAAAAAAAAAAAAAAAAAAAAAAAAAAAAAAAAAAAAAAAAAAAAAAAAAAAAAAAAAAAAAAAAAAAAAAAAAAAAAAAAAAAAAAAAAAAAAAAAAAAAAAAAAAAAAAAAAAAAAAAAAAAAAAAAAAAAAAAAAAAAAAAAAAAAAAAAAAAAAAAAAAAAAAAAAAAAAAAAAAAAAAAAAAAAAAAAAAAAAAAAAAAAAAAAAAAAAAAAAAAAAAAAAAAAAAAAAAAAAAAAAAAAAAAAAAAAAAAAAAAAAAAAAAAAAAAAAAAAAAAAAAAAAAAAAAAAAAAAAAAAAAAAAAAAAAAAAAAAAAAAAAAAAAAAAAAAAAAAAAAAAAAAAAAAAAAAAAAAAAAAAAAAAAAAAAAAAAAAAAAAAAAAAAAAAAAAAAAAAAAAAAAAAAAAAAAAAAAAAAAAAAAAAAAAAAAAAAAAAAAAAAAAAAAAAAAAAAAAAAAAAAAAAAAAAAAAAAAAAAAAAAAAAAAAAAAAAAAAAAAAAAAAAAAAAAAAAAAAAAAAAAAAAAAAAAAAAAAAAAAAAAAAAAAAAAAAAAAAAAAAAAAAAAAAAAAAAAAAAAAAAAAAAAAAAAAAAAAAAAAAAAAAAAAAAAAAAAAAAAAAAAAAAAAAAAAAAAAAAAAAAAAAAAAAAAAAAAAAAAAAAAAAAAAAAAAAAAAAAAAAAAAAAAAAAAAAAAAAAAAAAAAAAAAAAAAAAAAAAAAAAAAAAAAAAAAAAAAAAAAAAAAAAAAAAAAAAAAAAAAAAAAAAAAAAAAAAAAAAAAAAAAAAAAAAAAAAAAAAAAAAAAAAAAAAAAAAAAAAAAAAAAAAAAAAAAAAAAAAAAAAAAAAAAAAAAAAAAAAAAAAAAAAAAAAAAAAAAAAAAAAAAAAAAAAAAAAAAAAAAAAAAAAAAAAAAAAAAAAAAAAAAAAAAAAAAAAAAAAAAAAAAAAAAAAAAAAAAAAAAAAAAAAAAAAAPZYQPi3hiw2FUUWoMMRgcSWxvXzWrr+qU6nY9m7u7ly676Wi4BibfbMRhVq66gS8CuHanNvttaaKEFNm+njY6DcD6k=</c2pa:manifest></metadata>
<title id="title">whoami: Abhishek Kumawat</title>
<desc id="desc">Terminal panel introducing Abhishek Kumawat, full-stack and AI engineer, B.Tech at IIT Patna.</desc>
<defs>
  <radialGradient id="glow" cx="0.5" cy="0.5" r="0.5"><stop offset="0" stop-color="#40C463" stop-opacity=".14"/><stop offset="1" stop-color="#40C463" stop-opacity="0"/></radialGradient>
  <clipPath id="type"><rect x="40" y="96" width="0" height="30"><animate attributeName="width" begin="0.3s" dur="0.6s" fill="freeze" calcMode="discrete" values="0;40;90;140;200"/></rect></clipPath>
  <clipPath id="win"><rect x="10" y="10" width="980" height="440" rx="14"/></clipPath>
</defs>
<style>
  .t{font-family:"JetBrains Mono","Fira Code","SFMono-Regular",Consolas,"Liberation Mono",monospace;font-size:15px;fill:#1F2328}
  .dim{fill:#656D76} .acc{fill:#1A7F37} .hot{fill:#1A7F37;font-weight:700} .ok{fill:#0969DA}
  .val{fill:#1F2328;font-weight:600}
  .px{animation:pop .35s cubic-bezier(.2,1.4,.4,1) both;transform-box:fill-box;transform-origin:center}
  .ln{animation:rise .5s ease-out both}
  .cur{animation:blink 1s steps(1) infinite}
  .pulse{animation:pulse 2s ease-in-out infinite;transform-box:fill-box;transform-origin:center}
  .scan{animation:scan 6s linear infinite}
  @keyframes pop{from{opacity:0;transform:scale(.2)}to{opacity:1;transform:scale(1)}}
  @keyframes rise{from{opacity:0;transform:translateY(6px)}to{opacity:1;transform:translateY(0)}}
  @keyframes blink{50%{opacity:0}}
  @keyframes pulse{0%,100%{opacity:1;transform:scale(1)}50%{opacity:.35;transform:scale(1.6)}}
  @keyframes scan{from{transform:translateY(-60px)}to{transform:translateY(480px)}}
  @media (prefers-reduced-motion:reduce){.px,.ln,.cur,.pulse,.scan{animation:none}}
</style>
<rect x="10" y="10" width="980" height="440" rx="14" fill="#FFFFFF" stroke="#D0D7DE"/>
<g clip-path="url(#win)">
  <rect x="10" y="10" width="980" height="40" fill="#F6F8FA"/>
  <circle cx="36" cy="30" r="6" fill="#FF5F57"/><circle cx="56" cy="30" r="6" fill="#FEBC2E"/><circle cx="76" cy="30" r="6" fill="#28C840"/>
  <text x="500" y="35" text-anchor="middle" class="t dim" style="font-size:14px">abhishek@kumawat — zsh — ~/about</text>
  <rect x="10" y="50" width="980" height="34" fill="#F0F2F5"/><line x1="10" y1="84" x2="990" y2="84" stroke="#D0D7DE"/>
  <rect x="10" y="50" width="190" height="35" fill="#FFFFFF"/><rect x="10" y="50" width="190" height="2" fill="#1A7F37"/>
  <text x="30" y="72" class="t hot" style="font-size:14px">✱ about.md</text>
  <text x="222" y="72" class="t dim" style="font-size:14px">stack.json</text>
  <ellipse cx="170" cy="240" rx="170" ry="120" fill="url(#glow)"/>
  <g clip-path="url(#type)"><text x="44" y="116" class="t"><tspan class="dim">$</tspan><tspan class="hot" dx="8">whoami</tspan><tspan dx="8">--short</tspan></text></g>
  <rect x="46" y="150" width="19" height="19" rx="3" fill="#EBEDF0"/>
  <rect x="138" y="150" width="19" height="19" rx="3" fill="#EBEDF0"/>
  <rect x="69" y="173" width="19" height="19" rx="3" fill="#EBEDF0"/>
  <rect x="92" y="173" width="19" height="19" rx="3" fill="#EBEDF0"/>
  <rect x="115" y="173" width="19" height="19" rx="3" fill="#EBEDF0"/>
  <rect x="69" y="196" width="19" height="19" rx="3" fill="#EBEDF0"/>
  <rect x="92" y="196" width="19" height="19" rx="3" fill="#EBEDF0"/>
  <rect x="115" y="196" width="19" height="19" rx="3" fill="#EBEDF0"/>
  <rect x="69" y="242" width="19" height="19" rx="3" fill="#EBEDF0"/>
  <rect x="92" y="242" width="19" height="19" rx="3" fill="#EBEDF0"/>
  <rect x="115" y="242" width="19" height="19" rx="3" fill="#EBEDF0"/>
  <rect x="69" y="265" width="19" height="19" rx="3" fill="#EBEDF0"/>
  <rect x="92" y="265" width="19" height="19" rx="3" fill="#EBEDF0"/>
  <rect x="115" y="265" width="19" height="19" rx="3" fill="#EBEDF0"/>
  <rect x="69" y="288" width="19" height="19" rx="3" fill="#EBEDF0"/>
  <rect x="92" y="288" width="19" height="19" rx="3" fill="#EBEDF0"/>
  <rect x="115" y="288" width="19" height="19" rx="3" fill="#EBEDF0"/>
  <rect x="207" y="150" width="19" height="19" rx="3" fill="#EBEDF0"/>
  <rect x="230" y="150" width="19" height="19" rx="3" fill="#EBEDF0"/>
  <rect x="253" y="150" width="19" height="19" rx="3" fill="#EBEDF0"/>
  <rect x="207" y="173" width="19" height="19" rx="3" fill="#EBEDF0"/>
  <rect x="230" y="173" width="19" height="19" rx="3" fill="#EBEDF0"/>
  <rect x="276" y="173" width="19" height="19" rx="3" fill="#EBEDF0"/>
  <rect x="207" y="196" width="19" height="19" rx="3" fill="#EBEDF0"/>
  <rect x="253" y="196" width="19" height="19" rx="3" fill="#EBEDF0"/>
  <rect x="276" y="196" width="19" height="19" rx="3" fill="#EBEDF0"/>
  <rect x="230" y="219" width="19" height="19" rx="3" fill="#EBEDF0"/>
  <rect x="253" y="219" width="19" height="19" rx="3" fill="#EBEDF0"/>
  <rect x="276" y="219" width="19" height="19" rx="3" fill="#EBEDF0"/>
  <rect x="207" y="242" width="19" height="19" rx="3" fill="#EBEDF0"/>
  <rect x="253" y="242" width="19" height="19" rx="3" fill="#EBEDF0"/>
  <rect x="276" y="242" width="19" height="19" rx="3" fill="#EBEDF0"/>
  <rect x="207" y="265" width="19" height="19" rx="3" fill="#EBEDF0"/>
  <rect x="230" y="265" width="19" height="19" rx="3" fill="#EBEDF0"/>
  <rect x="276" y="265" width="19" height="19" rx="3" fill="#EBEDF0"/>
  <rect x="207" y="288" width="19" height="19" rx="3" fill="#EBEDF0"/>
  <rect x="230" y="288" width="19" height="19" rx="3" fill="#EBEDF0"/>
  <rect x="253" y="288" width="19" height="19" rx="3" fill="#EBEDF0"/>
  <rect x="161" y="150" width="19" height="19" rx="3" fill="#EBEDF0"/>
  <rect x="161" y="173" width="19" height="19" rx="3" fill="#EBEDF0"/>
  <rect x="161" y="196" width="19" height="19" rx="3" fill="#EBEDF0"/>
  <rect x="161" y="219" width="19" height="19" rx="3" fill="#EBEDF0"/>
  <rect x="161" y="242" width="19" height="19" rx="3" fill="#EBEDF0"/>
  <rect x="161" y="265" width="19" height="19" rx="3" fill="#EBEDF0"/>
  <rect x="161" y="288" width="19" height="19" rx="3" fill="#EBEDF0"/>
  <rect x="69" y="150" width="19" height="19" rx="3" class="px" fill="#216E39" style="animation-delay:0.90s"/>
  <rect x="92" y="150" width="19" height="19" rx="3" class="px" fill="#30A14E" style="animation-delay:0.94s"/>
  <rect x="115" y="150" width="19" height="19" rx="3" class="px" fill="#216E39" style="animation-delay:0.97s"/>
  <rect x="46" y="173" width="19" height="19" rx="3" class="px" fill="#216E39" style="animation-delay:1.01s"/>
  <rect x="138" y="173" width="19" height="19" rx="3" class="px" fill="#216E39" style="animation-delay:1.04s"/>
  <rect x="46" y="196" width="19" height="19" rx="3" class="px" fill="#216E39" style="animation-delay:1.07s"/>
  <rect x="138" y="196" width="19" height="19" rx="3" class="px" fill="#216E39" style="animation-delay:1.11s"/>
  <rect x="46" y="219" width="19" height="19" rx="3" class="px" fill="#216E39" style="animation-delay:1.15s"/>
  <rect x="69" y="219" width="19" height="19" rx="3" class="px" fill="#30A14E" style="animation-delay:1.18s"/>
  <rect x="92" y="219" width="19" height="19" rx="3" class="px" fill="#216E39" style="animation-delay:1.22s"/>
  <rect x="115" y="219" width="19" height="19" rx="3" class="px" fill="#30A14E" style="animation-delay:1.25s"/>
  <rect x="138" y="219" width="19" height="19" rx="3" class="px" fill="#30A14E" style="animation-delay:1.29s"/>
  <rect x="46" y="242" width="19" height="19" rx="3" class="px" fill="#30A14E" style="animation-delay:1.32s"/>
  <rect x="138" y="242" width="19" height="19" rx="3" class="px" fill="#216E39" style="animation-delay:1.35s"/>
  <rect x="46" y="265" width="19" height="19" rx="3" class="px" fill="#216E39" style="animation-delay:1.39s"/>
  <rect x="138" y="265" width="19" height="19" rx="3" class="px" fill="#30A14E" style="animation-delay:1.43s"/>
  <rect x="46" y="288" width="19" height="19" rx="3" class="px" fill="#216E39" style="animation-delay:1.46s"/>
  <rect x="138" y="288" width="19" height="19" rx="3" class="px" fill="#216E39" style="animation-delay:1.50s"/>
  <rect x="184" y="150" width="19" height="19" rx="3" class="px" fill="#216E39" style="animation-delay:1.53s"/>
  <rect x="276" y="150" width="19" height="19" rx="3" class="px" fill="#216E39" style="animation-delay:1.56s"/>
  <rect x="184" y="173" width="19" height="19" rx="3" class="px" fill="#216E39" style="animation-delay:1.60s"/>
  <rect x="253" y="173" width="19" height="19" rx="3" class="px" fill="#216E39" style="animation-delay:1.64s"/>
  <rect x="184" y="196" width="19" height="19" rx="3" class="px" fill="#216E39" style="animation-delay:1.67s"/>
  <rect x="230" y="196" width="19" height="19" rx="3" class="px" fill="#30A14E" style="animation-delay:1.71s"/>
  <rect x="184" y="219" width="19" height="19" rx="3" class="px" fill="#216E39" style="animation-delay:1.74s"/>
  <rect x="207" y="219" width="19" height="19" rx="3" class="px" fill="#216E39" style="animation-delay:1.78s"/>
  <rect x="184" y="242" width="19" height="19" rx="3" class="px" fill="#216E39" style="animation-delay:1.81s"/>
  <rect x="230" y="242" width="19" height="19" rx="3" class="px" fill="#216E39" style="animation-delay:1.85s"/>
  <rect x="184" y="265" width="19" height="19" rx="3" class="px" fill="#216E39" style="animation-delay:1.88s"/>
  <rect x="253" y="265" width="19" height="19" rx="3" class="px" fill="#30A14E" style="animation-delay:1.92s"/>
  <rect x="184" y="288" width="19" height="19" rx="3" class="px" fill="#216E39" style="animation-delay:1.95s"/>
  <rect x="276" y="288" width="19" height="19" rx="3" class="px" fill="#216E39" style="animation-delay:1.99s"/>
  <line x1="330" y1="100" x2="330" y2="400" stroke="#D8DEE4"/>
  <text x="372" y="112" class="t ln" style="animation-delay:1.3s"><tspan class="hot">abhishek</tspan><tspan class="dim">@</tspan><tspan class="hot">kumawat</tspan><tspan class="dim" dx="10">~/whoami</tspan></text>
  <line x1="372" y1="124" x2="960" y2="124" stroke="#D8DEE4" class="ln" style="animation-delay:1.4s"/>
  <text x="372" y="150" class="t ln" style="animation-delay:1.60s">Full-stack developer who turns hard problems into</text>
  <text x="372" y="174" class="t ln" style="animation-delay:1.78s">products people actually use. I live in the MERN</text>
  <text x="372" y="198" class="t ln" style="animation-delay:1.96s">world but reach for whatever ships the best result:</text>
  <text x="372" y="222" class="t ln" style="animation-delay:2.14s">real-time systems, AI-driven apps and data platforms.</text>
  <text x="372" y="260" class="t ln" style="animation-delay:2.32s"><tspan class="acc">▸</tspan><tspan class="dim" dx="8">role</tspan><tspan class="val" x="452">Full-Stack + AI Engineer</tspan></text>
  <text x="372" y="286" class="t ln" style="animation-delay:2.48s"><tspan class="acc">▸</tspan><tspan class="dim" dx="8">focus</tspan><tspan class="val" x="452">real-time systems, AI/ML, scale</tspan></text>
  <text x="372" y="312" class="t ln" style="animation-delay:2.64s"><tspan class="acc">▸</tspan><tspan class="dim" dx="8">stack</tspan><tspan class="val" x="452">MERN, Next.js, PostgreSQL, PyTorch</tspan></text>
  <text x="372" y="338" class="t ln" style="animation-delay:2.80s"><tspan class="acc">▸</tspan><tspan class="dim" dx="8">base</tspan><tspan class="val" x="452">B.Tech @ IIT Patna</tspan></text>
  <text x="372" y="364" class="t ln" style="animation-delay:2.96s"><tspan class="acc">▸</tspan><tspan class="dim" dx="8">motto</tspan><tspan class="val" x="452">bugs are just plot twists</tspan></text>
  <rect x="372" y="386" width="9" height="17" fill="#1A7F37" class="cur"/>
  <rect x="10" y="-40" width="980" height="40" fill="#1A7F37" opacity=".03" class="scan"/>
  <rect x="10" y="416" width="980" height="34" fill="#F6F8FA"/><line x1="10" y1="416" x2="990" y2="416" stroke="#D0D7DE"/>
  <path d="M10 416h96l10 17-10 17H10z" fill="#216E39"/><text x="24" y="438" class="t" style="font-size:13px;font-weight:700;fill:#FFFFFF">NORMAL</text>
  <path d="M110 416h40l10 17-10 17h-40l10-17z" fill="#EAEEF2"/><text x="128" y="438" class="t" style="font-size:13px">~</text>
  <path d="M154 416h100l10 17-10 17H154l10-17z" fill="#F6F8FA"/><text x="176" y="438" class="t hot" style="font-size:13px">git:main</text>
  <path d="M990 416H850l-10 17 10 17h140z" fill="#216E39"/>
  <circle cx="868" cy="433" r="4" fill="#FFFFFF" class="pulse"/>
  <text x="880" y="438" class="t" style="font-size:13px;font-weight:700;fill:#FFFFFF">ONLINE</text>
  <path d="M846 416H720l-10 17 10 17h126l-10-17z" fill="#EAEEF2"/><text x="738" y="438" class="t" style="font-size:13px">developer</text>
  <path d="M716 416H636l-10 17 10 17h80l-10-17z" fill="#F6F8FA"/><text x="648" y="438" class="t dim" style="font-size:13px">UTF-8</text>
</g>
</svg>
